# xmcd CD database file
#
# Track frame offsets:
#	150
#	18680
#	34715
#	50084
#	70772
#	89174
#	109941
#	127620
#	146280
#	161027
#	179272
#
# Disc length: 2525 seconds
#
# Revision: 0
# Processed by: cddbd v1.4PL0 Copyright (c) Steve Scherf et al.
# Submitted via: CDex 1.40Beta8
#
DISCID=9609db0b
DTITLE=West 84 - Just For Fun
DYEAR=2001
DGENRE=Country
TTITLE0=Tired of Being Alone
TTITLE1=Quarter in the Jukebox
TTITLE2=Just For Fun
TTITLE3=Who I Am
TTITLE4=Looking Back Now
TTITLE5=Beer Joints to the Opry
TTITLE6=Tonight
TTITLE7=Lick the Salt 
TTITLE8=Before You Go
TTITLE9=Doug's Song
TTITLE10=(Untitled Track)
EXTD=YEAR: 2001 ID3G: 2
EXTT0=
EXTT1=
EXTT2=
EXTT3=
EXTT4=
EXTT5=
EXTT6=
EXTT7=
EXTT8=
EXTT9=
EXTT10=
PLAYORDER=
